<svg width="41" height="47" viewBox="0 0 41 47" fill="none" xmlns="http://www.w3.org/2000/svg">
<path d="M20.4155 0.453125C15.0904 0.453125 9.98337 2.53455 6.21792 6.23951C2.45247 9.94449 0.337067 14.9695 0.337067 20.2091C0.337067 25.4487 2.45247 30.4737 6.21792 34.1788C9.98337 37.8836 15.0904 39.9651 20.4155 39.9651V45.4528C20.4155 46.2893 21.3351 46.8239 22.0713 46.4046C26.3979 43.9401 37.8371 35.8105 40.0801 24.1834C40.092 24.1178 40.1038 24.052 40.1151 23.9861C40.2123 23.4552 40.3062 22.9238 40.3634 22.3785C40.4474 21.6583 40.4909 20.934 40.4941 20.2091C40.4941 14.9695 38.3786 9.94449 34.6132 6.23951C30.8477 2.53455 25.7407 0.453125 20.4155 0.453125Z" fill="#004A54"/>
<path d="M10.2136 24.2567H15.8855C18.9647 24.2567 18.1318 11.914 19.5074 11.9141C20.1258 11.9141 20.05 12.7679 20.416 16.5502C20.4829 17.2414 21.8743 28.4219 22.846 28.4219C23.8179 28.4219 23.4384 24.2567 25.6833 24.2567C27.928 24.2567 28.9271 24.2567 28.9271 24.2567" stroke="#D9FFF0" stroke-width="2.91295" stroke-linecap="round" stroke-linejoin="round"/>
</svg>
